# AST/ASF file generated using VICON BodyLanguage
# -----------------------------------------------
:version 1.10
:name VICON
:units
  mass 1.0
  length 0.45
  angle deg
:documentation
   .ast/.asf automatically generated from VICON data using
   VICON BodyBuilder and BodyLanguage model FoxedUp or BRILLIANT.MOD
:root
   order TX TY TZ RX RY RZ
   axis XYZ
   position 0 0 0  
   orientation 0 0 0 
:bonedata
  begin
     id 1 
     name lhipjoint
     direction 0.646657 -0.683706 0.338203 
     length 2.4948 
     axis 0 0 0  XYZ
  end
  begin
     id 2 
     name lfemur
     direction 0.34202 -0.939693 0  
     length 6.79491  
     axis 0 0 20  XYZ
    dof rx ry rz
    limits (-160.0 20.0)
           (-70.0 70.0)
           (-60.0 70.0)
  end
  begin
     id 3 
     name ltibia
     direction 0.34202 -0.939693 0   
     length 7.56807   
     axis 0 0 20   XYZ
    dof rx
    limits (-10.0 170.0)
  end
  begin
     id 4 
     name lfoot
     direction 0.0679796 -0.186772 0.980048   
     length 2.53018   
     axis -90 7.62852e-016 20   XYZ
    dof rx rz
    limits (-45.0 90.0)
           (-70.0 20.0)
  end
  begin
     id 5 
     name ltoes
     direction 1.53625e-011 -4.21881e-011 1   
     length 1.26912   
     axis -90 7.62852e-016 20   XYZ
    dof rx
    limits (-90.0 20.0)
  end
  begin
     id 6 
     name rhipjoint
     direction -0.618868 -0.704065 0.348274   
     length 2.42265  
     axis 0 0 0  XYZ 
  end
  begin
     id 7 
     name rfemur
     direction -0.34202 -0.939693 0   
     length 6.73814   
     axis 0 0 -20   XYZ
    dof rx ry rz
    limits (-160.0 20.0)
           (-70.0 70.0)
           (-70.0 60.0)
  end
  begin
     id 8 
     name rtibia
     direction -0.34202 -0.939693 0   
     length 7.66799   
     axis 0 0 -20   XYZ
    dof rx
    limits (-10.0 170.0)
 end
 begin
     id 9 
     name rfoot
     direction -0.0727352 -0.199838 0.977125   
     length 2.57224  
     axis -90 -7.62852e-016 -20   XYZ
    dof rx rz
    limits (-45.0 90.0)
           (-20.0 70.0)
  end
  begin
     id 10 
     name rtoes
     direction -1.53501e-011 -4.21858e-011 1   
     length 1.28858   
     axis -90 -7.62852e-016 -20   XYZ
    dof rx
    limits (-90.0 20.0)
  end
  begin
     id 11 
     name lowerback
     direction -0.0172471 0.995767 -0.0902851   
     length 2.20206   
     axis 0 0 0   XYZ
    dof rx ry rz
    limits (-20.0 45.0)
           (-30.0 30.0)
           (-30.0 30.0)
  end
  begin
     id 12 
     name upperback
     direction -0.000110737 0.999714 0.0239043   
     length 2.19523   
     axis 0 0 0   XYZ
    dof rx ry rz
    limits (-20.0 45.0)
           (-30.0 30.0)
           (-30.0 30.0)
  end
  begin
     id 13 
     name thorax
     direction 0.00704869 0.997783 0.0661741   
     length 2.21977   
     axis 0 0 0   XYZ
    dof rx ry rz
    limits (-20.0 45.0)
           (-30.0 30.0)
           (-30.0 30.0)
  end
  begin
     id 14 
     name lowerneck
     direction -0.00407501 0.995527 0.0943846   
     length 1.83142   
     axis 0 0 0   XYZ
    dof rx ry rz
    limits (-20.0 45.0)
           (-30.0 30.0)
           (-30.0 30.0)
  end
  begin
     id 15 
     name upperneck
     direction 0.0640586 0.986486 -0.150807   
     length 1.84616   
     axis 0 0 0   XYZ
    dof rx ry rz
    limits (-20.0 45.0)
           (-30.0 30.0)
           (-30.0 30.0)
  end
  begin
     id 16
     name head
     direction 0.0188017 0.99791 -0.0618239  
     length 1.85932  
     axis 0 0 0   XYZ
    dof rx ry rz
    limits (-20.0 45.0)
           (-30.0 30.0)
           (-30.0 30.0)
  end
  begin
     id 17 
     name lclavicle
     direction 0.976074 0.206905 0.066852  
     length 3.81043  
     axis 0 0 0   XYZ
    dof ry rz
    limits (-20.0 10.0)
           (0.0 20.0)
  end
  begin
     id 18 
     name lhumerus
     direction 1 -4.48971e-011 1.86916e-027   
     length 5.37587   
     axis 180 -30 -90   XYZ
    dof rx ry rz
    limits (-60.0 90.0)
           (-90.0 90.0)
           (-90.0 90.0)
  end
  begin
     id 19
     name lradius
     direction 1 -4.48968e-011 1.69187e-027   
     length 3.35977   
     axis 180 -30 -90   XYZ
    dof rx
    limits (-10.0 170.0)
  end
  begin
     id 20
     name lwrist
     direction 1 -4.48968e-011 5.8978e-027   
     length 1.67988   
     axis -3.27506e-015 90 90   XYZ
    dof ry
    limits (-180.0 0.0)
 end
  begin
     id 21 
     name lhand
     direction 1 -4.49028e-011 1.18071e-026   
     length 0.561859   
     axis -7.52654e-015 90 90   XYZ
    dof rx rz
    limits (-90.0 90.0)
           (-45.0 45.0)
  end
  begin
     id 22 
     name lfingers
     direction 1 -4.48927e-011 2.35758e-026   
     length 0.452985   
     axis -1.50534e-014 90 90   XYZ
    dof rx
    limits (0.0 90.0)
  end
  begin
     id 23
     name lthumb
     direction 0.707107 -6.34898e-011 0.707107   
     length 0.650399   
     axis -90 45 5.69224e-014   XYZ
    dof rx rz
    limits (-45.0 45.0)
           (-45.0 45.0)
  end
  begin
     id 24 
     name rclavicle
     direction -0.988403 0.151789 0.00439714   
     length 3.6942  
     axis 0 0 0   XYZ 
    dof ry rz
    limits (-10.0 20.0)
           (-20.0 0.0)
  end
  begin
     id 25 
     name rhumerus
     direction -1 -4.48978e-011 1.62495e-027  
     length 5.22819   
     axis 180 30 90   XYZ
    dof rx ry rz
    limits (-90.0 60.0)
           (-90.0 90.0)
           (-90.0 90.0)
  end
  begin
     id 26 
     name rradius
     direction -1 -4.48961e-011 3.47796e-027   
     length 3.40764   
     axis 180 30 90   XYZ
    dof rx
    limits (-10.0 170.0)
  end
  begin
     id 27 
     name rwrist
     direction -1 -4.48949e-011 5.89602e-027   
     length 1.70382   
     axis -3.27506e-015 -90 -90   XYZ
    dof ry
    limits (-180.0 0.0)
  end
  begin
     id 28
     name rhand
     direction -1 -4.48977e-011 1.17973e-026   
     length 0.583255   
     axis -7.52654e-015 -90 -90   XYZ
    dof rx rz
    limits (-90.0 90.0)
           (-45.0 45.0)
  end
  begin
     id 29
     name rfingers
     direction -1 -4.49099e-011 2.36408e-026   
     length 0.470235   
     axis -1.50534e-014 -90 -90   XYZ
    dof rx
    limits (0.0 90.0)
  end
  begin
     id 30
     name rthumb
     direction -0.707107 -6.35011e-011 0.707107   
     length 0.675167   
     axis -90 -45 -5.69224e-014   XYZ
    dof rx rz
    limits (-45.0 45.0)
           (-45.0 45.0)
  end
:hierarchy
  begin
    root lhipjoint rhipjoint lowerback
    lhipjoint lfemur
    lfemur ltibia
    ltibia lfoot
    lfoot ltoes
    rhipjoint rfemur
    rfemur rtibia
    rtibia rfoot
    rfoot rtoes
    lowerback upperback
    upperback thorax
    thorax lowerneck lclavicle rclavicle
    lowerneck upperneck
    upperneck head
    lclavicle lhumerus
    lhumerus lradius
    lradius lwrist
    lwrist lhand lthumb
    lhand lfingers
    rclavicle rhumerus
    rhumerus rradius
    rradius rwrist
    rwrist rhand rthumb
    rhand rfingers
  end

#!OML:ASF G:\JayActor3\Patient Classification 1\Patient 1\Session 2\male.ASF
:FULLY-SPECIFIED
:DEGREES
133
root 19.1084 18.7207 -3.68082 -72.0115 -67.4995 69.6072
lowerback 15.1667 -1.07888 -4.9063
upperback 4.64276 -2.35315 0.271254
thorax -3.36033 -1.2595 3.47772
lowerneck 0.831052 0.940637 -1.60062
upperneck 2.37559 1.16506 3.57357
head 0.559552 0.581491 1.37126
rclavicle -2.62396e-014 -2.22639e-014
rhumerus 27.2522 26.0572 -36.4459
rradius 71.6224
rwrist -27.964
rhand -12.589 7.17347
rfingers 7.12502
rthumb 13.4894 -22.3697
lclavicle -2.62396e-014 -2.22639e-014
lhumerus 48.014 -12.8336 -10.0498
lradius 59.7242
lwrist 19.8425
lhand -28.6077 17.4056
lfingers 7.12502
lthumb -1.97279 47.3762
rfemur -15.834 4.09814 8.45885
rtibia 37.6296
rfoot 4.4947 -21.2375
rtoes 30.0414
lfemur -46.8932 37.8748 -11.993
ltibia 93.7048
lfoot -8.83655 5.79929
ltoes -22.0066
134
root 18.947 19.0146 -3.65337 -74.1772 -67.3941 71.8971
lowerback 15.5032 -0.79562 -5.14165
upperback 4.81086 -2.05839 -0.0421006
thorax -3.39419 -1.12079 3.23814
lowerneck 0.937904 0.936718 -1.57964
upperneck 2.67252 1.14468 3.70057
head 0.633554 0.571602 1.40915
rclavicle 2.22639e-014 5.40694e-014
rhumerus 27.1008 25.1499 -34.8902
rradius 71.6278
rwrist -28.1197
rhand -12.3056 7.23823
rfingers 7.12502
rthumb 13.7625 -22.2866
lclavicle 2.22639e-014 5.40694e-014
lhumerus 47.1286 -12.1816 -10.509
lradius 59.8386
lwrist 19.443
lhand -28.1138 17.0984
lfingers 7.12502
lthumb -1.49584 47.0729
rfemur -16.3803 2.51691 8.69367
rtibia 38.3177
rfoot 8.22278 -22.5705
rtoes 31.9616
lfemur -47.549 38.104 -11.3893
ltibia 93.4988
lfoot -9.33464 5.96605
ltoes -22.7828
135
root 18.7946 19.2967 -3.62361 -76.5636 -67.3394 74.4039
lowerback 15.9481 -0.491769 -5.34482
upperback 4.98109 -1.74381 -0.362019
thorax -3.48497 -0.971942 2.97026
lowerneck 1.0201 0.953636 -1.51851
upperneck 2.87864 1.15499 3.81888
head 0.68308 0.577334 1.43701
rclavicle -1.90833e-014 -2.54444e-014
rhumerus 26.8132 24.3031 -33.5142
rradius 71.4093
rwrist -28.2309
rhand -12.032 7.3197
rfingers 7.12502
rthumb 14.0261 -22.1871
lclavicle -1.90833e-014 -2.54444e-014
lhumerus 46.3013 -11.498 -10.8009
lradius 59.8346
lwrist 18.9954
lhand -27.5924 16.8333
lfingers 7.12502
lthumb -0.992254 46.8107
rfemur -17.4732 0.470455 9.13362
rtibia 39.9918
rfoot 12.3081 -23.0224
rtoes 33.3195
lfemur -48.1327 38.4472 -10.7944
ltibia 93.454
lfoot -9.7283 5.8926
ltoes -23.8662
136
root 18.6505 19.5641 -3.5917 -79.1905 -67.3002 77.1272
lowerback 16.4999 -0.16963 -5.54101
upperback 5.15881 -1.41869 -0.698922
thorax -3.62362 -0.818334 2.67669
lowerneck 1.08836 0.992619 -1.40819
upperneck 2.9864 1.19834 3.92783
head 0.703812 0.599761 1.45283
rclavicle 1.98785e-014 3.49861e-014
rhumerus 26.4242 23.5109 -32.364
rradius 70.9606
rwrist -28.2959
rhand -11.7875 7.42431
rfingers 7.12502
rthumb 14.2618 -22.066
lclavicle 1.98785e-014 3.49861e-014
lhumerus 45.5484 -10.7794 -10.9745
lradius 59.6946
lwrist 18.5357
lhand -27.093 16.6071
lfingers 7.12502
lthumb -0.509899 46.5863
rfemur -19.0243 -1.81183 9.78722
rtibia 42.6352
rfoot 16.3321 -22.7157
rtoes 34.1584
lfemur -48.6707 38.944 -10.2322
ltibia 93.6309
lfoot -10.0452 5.62408
ltoes -25.104
137
root 18.5136 19.8141 -3.55784 -82.0157 -67.2407 80.0025
lowerback 17.1486 0.165739 -5.75366
upperback 5.3518 -1.09503 -1.05384
thorax -3.79375 -0.66699 2.36948
lowerneck 1.14983 1.05211 -1.25087
upperneck 2.9925 1.2733 4.02434
head 0.693544 0.637904 1.45583
rclavicle 1.51076e-014 1.59028e-014
rhumerus 25.9571 22.7585 -31.4761
rradius 70.298
rwrist -28.3019
rhand -11.5982 7.55526
rfingers 7.12502
rthumb 14.4441 -21.9221
lclavicle 1.51076e-014 1.59028e-014
lhumerus 44.8834 -10.0188 -11.0372
lradius 59.4031
lwrist 18.093
lhand -26.6532 16.4194
lfingers 7.12502
lthumb -0.0851176 46.3992
rfemur -20.9154 -4.10874 10.6465
rtibia 46.1538
rfoot 19.7767 -21.9846
rtoes 34.6849
lfemur -49.1945 39.6102 -9.72287
ltibia 94.0742
lfoot -10.3143 5.20702
ltoes -26.3324
138
root 18.3822 20.0446 -3.52226 -84.9444 -67.1302 82.9148
lowerback 17.8807 0.50784 -6.00109
upperback 5.56567 -0.785407 -1.42007
thorax -3.97998 -0.52504 2.06678
lowerneck 1.20804 1.12828 -1.05894
upperneck 2.90204 1.37514 4.10407
head 0.65349 0.689018 1.44674
rclavicle -7.15625e-015 -3.49861e-014
rhumerus 25.4238 22.0303 -30.8691
rradius 69.46
rwrist -28.2292
rhand -11.4851 7.71223
rfingers 7.12502
rthumb 14.5531 -21.7573
lclavicle -7.15625e-015 -3.49861e-014
lhumerus 44.3172 -9.20914 -10.9573
lradius 58.9526
lwrist 17.6849
lhand -26.2914 16.2712
lfingers 7.12502
lthumb 0.264344 46.2508
rfemur -23.0213 -6.27093 11.6829
rtibia 50.3939
rfoot 22.296 -21.1942
rtoes 35.0926
lfemur -49.7361 40.4364 -9.28634
ltibia 94.8022
lfoot -10.5584 4.67425
ltoes -27.4316
139
root 18.2542 20.2548 -3.48517 -87.8464 -66.9464 85.7202
lowerback 18.6836 0.849858 -6.29614
upperback 5.8006 -0.501579 -1.78615
thorax -4.17357 -0.398666 1.78947
lowerneck 1.26436 1.21621 -0.851613
upperneck 2.72859 1.49717 4.16254
head 0.587959 0.749404 1.42755
rclavicle 1.43125e-014 4.77083e-014
rhumerus 24.8276 21.3156 -30.5401
rradius 68.5033
rwrist -28.0646
rhand -11.4537 7.88824
rfingers 7.12502
rthumb 14.5834 -21.5791
lclavicle 1.43125e-014 4.77083e-014
lhumerus 43.8569 -8.34608 -10.6743
lradius 58.3519
lwrist 17.3206
lhand -26.0071 16.1623
lfingers 7.12502
lthumb 0.538885 46.1413
rfemur -25.2316 -8.24868 12.8518
rtibia 55.1676
rfoot 23.8138 -20.5506
rtoes 35.4731
lfemur -50.3247 41.3896 -8.94906
ltibia 95.7985
lfoot -10.7924 4.03725
ltoes -28.3613
140
root 18.1278 20.4457 -3.4469 -90.5733 -66.6767 88.264
lowerback 19.5472 1.18377 -6.64511
upperback 6.05108 -0.255608 -2.13878
thorax -4.37395 -0.293558 1.55774
lowerneck 1.31716 1.31111 -0.651
upperneck 2.49433 1.63235 4.19557
head 0.504396 0.815377 1.40097
rclavicle 8.74653e-015 -1.27222e-014
rhumerus 24.1698 20.6123 -30.4659
rradius 67.4934
rwrist -27.8121
rhand -11.4884 8.07204
rfingers 7.12502
rthumb 14.55 -21.3977
lclavicle 8.74653e-015 -1.27222e-014
lhumerus 43.5032 -7.42923 -10.113
lradius 57.6307
lwrist 17.0037
lhand -25.7898 16.0887
lfingers 7.12502
lthumb 0.748754 46.0672
rfemur -27.4619 -10.0809 14.1028
rtibia 60.277
rfoot 24.4766 -20.069
rtoes 35.8523
lfemur -50.9848 42.4157 -8.74851
ltibia 97.0118
lfoot -11.0262 3.28978
ltoes -29.1518
141
root 18.001 20.6192 -3.4078 -92.9819 -66.3183 90.4073
lowerback 20.462 1.50005 -7.04594
upperback 6.30814 -0.0596931 -2.46712
thorax -4.5849 -0.21498 1.38545
lowerneck 1.36343 1.40865 -0.474502
upperneck 2.22311 1.77383 4.19851
head 0.410906 0.88364 1.36879
rclavicle 9.54166e-015 4.77083e-014
rhumerus 23.4557 19.9243 -30.6134
rradius 66.4913
rwrist -27.499
rhand -11.5556 8.24871
rfingers 7.12502
rthumb 14.4852 -21.2257
lclavicle 9.54166e-015 4.77083e-014
lhumerus 43.2489 -6.46046 -9.20287
lradius 56.8412
lwrist 16.7357
lhand -25.627 16.0442
lfingers 7.12502
lthumb 0.90603 46.022
rfemur -29.6606 -11.8619 15.3896
rtibia 65.5344
rfoot 24.555 -19.6426
rtoes 36.203
lfemur -51.7405 43.4487 -8.73459
ltibia 98.3651
lfoot -11.267 2.42137
ltoes -29.8736
142
root 17.8726 20.778 -3.36799 -94.9594 -65.8788 92.051
lowerback 21.416 1.78812 -7.48513
upperback 6.56257 0.07567 -2.76486
thorax -4.80925 -0.167088 1.2757
lowerneck 1.39748 1.50375 -0.332295
upperneck 1.93664 1.91366 4.16842
head 0.31531 0.950592 1.33212
rclavicle -1.66979e-014 -1.74931e-014
rhumerus 22.6958 19.2555 -30.9509
rradius 65.5448
rwrist -27.1707
rhand -11.614 8.40423
rfingers 7.12502
rthumb 14.429 -21.0742
lclavicle -1.66979e-014 -1.74931e-014
lhumerus 43.0802 -5.44312 -7.89545
lradius 56.0547
lwrist 16.5164
lhand -25.5141 16.0225
lfingers 7.12502
lthumb 1.01504 45.9998
rfemur -31.8081 -13.7047 16.6782
rtibia 70.7765
rfoot 24.3317 -19.1564
rtoes 36.512
lfemur -52.6203 44.4214 -8.96218
ltibia 99.7728
lfoot -11.5197 1.43545
ltoes -30.5978
143
root 17.7419 20.9244 -3.32706 -96.4341 -65.3735 93.146
lowerback 22.3924 2.03566 -7.93524
upperback 6.80713 0.142052 -3.03179
thorax -5.04538 -0.152951 1.21765
lowerneck 1.41298 1.58999 -0.226158
upperneck 1.6501 2.04216 4.10527
head 0.223502 1.01184 1.29147
rclavicle -7.95139e-016 -1.11319e-014
rhumerus 21.9067 18.6055 -31.4564
rradius 64.6809
rwrist -26.879
rhand -11.6316 8.52855
rfingers 7.12502
rthumb 14.412 -20.9511
lclavicle -7.95139e-016 -1.11319e-014
lhumerus 42.9796 -4.38531 -6.17961
lradius 55.3535
lwrist 16.3444
lhand -25.4586 16.0233
lfingers 7.12502
lthumb 1.06867 46.0004
rfemur -33.8948 -15.71 17.9497
rtibia 75.7912
rfoot 24.0689 -18.6024
rtoes 36.8059
lfemur -53.6686 45.2713 -9.48103
ltibia 101.121
lfoot -11.7408 0.361807
ltoes -31.357
144
root 17.6085 21.0602 -3.28414 -97.4013 -64.8221 93.7159
lowerback 23.3696 2.23333 -8.35897
upperback 7.03705 0.139243 -3.27236
thorax -5.28723 -0.1717 1.18832
lowerneck 1.40423 1.65915 -0.151322
upperneck 1.37172 2.14758 4.01241
head 0.139148 1.06191 1.24732
rclavicle 1.59028e-014 4.6118e-014
rhumerus 21.1059 17.9671 -32.122
rradius 63.9059
rwrist -26.6663
rhand -11.5984 8.6168
rfingers 7.12502
rthumb 14.444 -20.8605
lclavicle 1.59028e-014 4.6118e-014
lhumerus 42.9294 -3.3053 -4.08685
lradius 54.8177
lwrist 16.2197
lhand -25.4766 16.0527
lfingers 7.12502
lthumb 1.05128 46.0298
rfemur -35.9765 -17.9367 19.2015
rtibia 80.5762
rfoot 23.8175 -17.9671
rtoes 37.1767
lfemur -54.9006 45.9523 -10.3117
ltibia 102.386
lfoot -11.9708 -0.755638
ltoes -32.0926
145
root 17.4721 21.234 -3.26601 -97.9182 -64.2448 93.8492
lowerback 24.322 2.37728 -8.7159
upperback 7.24901 0.0774273 -3.49223
thorax -5.52633 -0.217559 1.15884
lowerneck 1.36832 1.70308 -0.101162
upperneck 1.10518 2.2185 3.89658
head 0.0639752 1.09529 1.20079
rclavicle 8.74653e-015 2.54444e-014
rhumerus 20.3083 17.3298 -32.9477
rradius 63.2111
rwrist -26.5553
rhand -11.5349 8.66918
rfingers 7.12502
rthumb 14.5051 -20.8038
lclavicle 8.74653e-015 2.54444e-014
lhumerus 42.9136 -2.23776 -1.68621
lradius 54.513
lwrist 16.1459
lhand -25.5874 16.1222
lfingers 7.12502
lthumb 0.944273 46.0999
rfemur -37.7705 -20.3779 20.458
rtibia 84.7209
rfoot 23.6009 -17.3468
rtoes 37.7417
lfemur -55.8786 46.4452 -11.4228
ltibia 103.115
lfoot -12.2144 -1.87272
ltoes -32.6912
146
root 17.3334 21.3517 -3.21645 -98.0927 -63.6601 93.6846
lowerback 25.2213 2.47117 -8.97181
upperback 7.44007 -0.0225202 -3.69457
thorax -5.7544 -0.279764 1.1028
lowerneck 1.30646 1.71719 -0.0705412
upperneck 0.853108 2.24846 3.7645
head -0.00143282 1.10882 1.15319
rclavicle -2.8625e-014 -6.36111e-014
rhumerus 19.5243 16.6859 -33.9319
rradius 62.5796
rwrist -26.5458
rhand -11.4872 8.69029
rfingers 7.12502
rthumb 14.5511 -20.7794
lclavicle -2.8625e-014 -6.36111e-014
lhumerus 42.9146 -1.23381 0.93147
lradius 54.4793
lwrist 16.13
lhand -25.8039 16.2412
lfingers 7.12502
lthumb 0.73515 46.2196
rfemur -39.9161 -22.9954 21.6981
rtibia 88.8004
rfoot 23.4435 -16.7722
rtoes 38.5727
lfemur -57.438 46.7389 -12.7502
ltibia 104.09
lfoot -12.3936 -2.93138
ltoes -33.0336
147
root 17.1911 21.4632 -3.16243 -98.0653 -63.0819 93.3887
lowerback 26.0395 2.52739 -9.10521
upperback 7.60712 -0.130261 -3.87863
thorax -5.96506 -0.343206 1.00121
lowerneck 1.22399 1.70313 -0.0562533
upperneck 0.619762 2.23942 3.62071
head -0.0568649 1.10348 1.10538
rclavicle -1.59028e-015 3.97569e-014
rhumerus 18.7578 16.0346 -35.0649
rradius 61.9936
rwrist -26.6182
rhand -11.5133 8.68889
rfingers 7.12502
rthumb 14.526 -20.7826
lclavicle -1.59028e-015 3.97569e-014
lhumerus 42.911 -0.35434 3.67123
lradius 54.7262
lwrist 16.1796
lhand -26.1249 16.4108
lfingers 7.12502
lthumb 0.425095 46.3901
rfemur -42.1177 -25.6662 22.9461
rtibia 92.4407
rfoot 23.3535 -16.2779
rtoes 39.622
lfemur -59.0685 46.8463 -14.1805
ltibia 104.878
lfoot -12.511 -3.88789
ltoes -33.046
